<svg data-v-423bf9ae="" xmlns="http://www.w3.org/2000/svg" viewBox="0 0 666 90" class="iconLeft"><!----><!----><!----><g data-v-423bf9ae="" id="ad1a457d-adb5-49df-bbe4-29cf4706f062" fill="white" transform="matrix(5.34283191858899,0,0,5.34283191858899,171.47079466037889,-1.3490648883258558)"><path d="M6.79 7.05L6.79 7.05L8.59 6.82L8.59 6.82Q9.10 6.82 9.10 7.22L9.10 7.22L9.10 7.22Q9.10 7.62 8.62 7.71L8.62 7.71L8.62 7.71Q8.14 7.81 6.46 7.98L6.46 7.98L6.46 7.98Q6.23 8.59 5.76 9.67L5.76 9.67L5.76 9.67Q4.81 11.88 4.81 12.33L4.81 12.33L4.81 12.33Q4.81 12.81 5.41 12.81L5.41 12.81L5.41 12.81Q7.36 12.81 8.90 12.16L8.90 12.16L8.90 12.16Q9.13 12.07 9.26 12.07L9.26 12.07L9.26 12.07Q9.51 12.07 9.51 12.29L9.51 12.29L9.51 12.29Q9.51 12.52 9.18 12.74L9.18 12.74L9.18 12.74Q8.18 13.40 6.15 13.84L6.15 13.84L6.15 13.84Q4.13 14.29 2.42 14.29L2.42 14.29L2.42 14.29Q1.45 14.29 0.94 13.98L0.94 13.98L0.94 13.98Q0.42 13.68 0.42 13.15L0.42 13.15L0.42 13.15Q0.42 12.61 1.13 11.13L1.13 11.13L1.13 11.13Q1.93 9.47 2.28 8.22L2.28 8.22L2.28 8.22Q1.86 8.24 1.70 8.24L1.70 8.24L1.70 8.24Q1.29 8.24 1.29 7.92L1.29 7.92L1.29 7.92Q1.29 7.68 1.42 7.59L1.42 7.59L1.42 7.59Q1.55 7.51 1.69 7.48L1.69 7.48L1.69 7.48Q1.83 7.44 1.93 7.43L1.93 7.43L1.93 7.43Q2.03 7.42 2.21 7.41L2.21 7.41L2.21 7.41Q2.39 7.40 2.47 7.39L2.47 7.39L2.47 7.39Q2.56 6.87 2.56 6.41L2.56 6.41L2.55 6.15L2.55 6.15Q2.55 5.84 3.33 5.74L3.33 5.74L3.33 5.74Q3.59 5.70 4.96 5.39L4.96 5.39L4.96 5.39Q6.34 5.09 6.64 5.09L6.64 5.09L6.64 5.09Q7.14 5.09 7.14 5.43L7.14 5.43L7.14 5.43Q7.14 6.02 6.79 7.05ZM19.78 12.07L19.78 12.07L19.78 12.07Q20.02 12.07 20.02 12.29L20.02 12.29L20.02 12.29Q20.02 12.51 19.69 12.70L19.69 12.70L19.69 12.70Q19.37 12.89 18.89 13.10L18.89 13.10L18.89 13.10Q18.41 13.32 17.57 13.61L17.57 13.61L17.57 13.61Q15.63 14.29 13.20 14.29L13.20 14.29L13.20 14.29Q8.58 14.29 8.58 11.44L8.58 11.44L8.58 11.44Q8.58 10.06 9.46 8.98L9.46 8.98L9.46 8.98Q10.34 7.90 11.81 7.33L11.81 7.33L11.81 7.33Q13.29 6.76 15.03 6.76L15.03 6.76L15.03 6.76Q16.78 6.76 17.59 7.30L17.59 7.30L17.59 7.30Q18.40 7.84 18.40 8.78L18.40 8.78L18.40 8.78Q18.40 9.75 17.62 10.37L17.62 10.37L17.62 10.37Q16.84 10.99 15.56 11.29L15.56 11.29L15.56 11.29Q14.27 11.59 12.60 11.71L12.60 11.71L12.60 11.71Q12.71 12.77 14.12 13.03L14.12 13.03L14.12 13.03Q14.48 13.09 14.88 13.09L14.88 13.09L14.88 13.09Q16.48 13.09 19.50 12.13L19.50 12.13L19.50 12.13Q19.68 12.07 19.78 12.07ZM12.61 10.96L12.61 10.96L12.61 10.96Q13.79 10.63 14.49 9.95L14.49 9.95L14.49 9.95Q15.18 9.28 15.18 8.32L15.18 8.32L15.18 8.32Q15.18 8.07 15.01 7.92L15.01 7.92L15.01 7.92Q14.85 7.77 14.52 7.77L14.52 7.77L14.52 7.77Q14.18 7.77 13.83 8.05L13.83 8.05L13.83 8.05Q13.47 8.34 13.22 8.80L13.22 8.80L13.22 8.80Q12.70 9.77 12.61 10.96ZM23.42 9.55L23.42 9.55L23.42 9.55Q23.11 10.39 23.11 11.09L23.11 11.09L23.11 11.09Q23.11 11.80 23.25 12.14L23.25 12.14L23.25 12.14Q23.39 12.49 23.68 12.67L23.68 12.67L23.68 12.67Q24.66 13.29 27.55 12.74L27.55 12.74L27.55 12.74Q28.92 12.48 29.55 12.27L29.55 12.27L29.55 12.27Q30.17 12.07 30.28 12.07L30.28 12.07L30.28 12.07Q30.52 12.07 30.52 12.30L30.52 12.30L30.52 12.30Q30.52 12.53 30.16 12.77L30.16 12.77L30.16 12.77Q29.20 13.39 27.46 13.84L27.46 13.84L27.46 13.84Q25.72 14.29 23.57 14.29L23.57 14.29L23.57 14.29Q21.42 14.29 20.30 13.52L20.30 13.52L20.30 13.52Q19.19 12.76 19.19 11.40L19.19 11.40L19.19 11.40Q19.19 10.56 19.54 9.82L19.54 9.82L19.54 9.82Q19.89 9.07 20.50 8.52L20.50 8.52L20.50 8.52Q21.12 7.97 21.93 7.57L21.93 7.57L21.93 7.57Q23.56 6.76 25.62 6.76L25.62 6.76L25.62 6.76Q28.03 6.76 29.00 7.31L29.00 7.31L29.00 7.31Q29.11 7.40 29.11 7.65L29.11 7.65L29.11 7.65Q29.11 7.89 28.90 8.45L28.90 8.45L28.90 8.45Q28.68 9.01 28.34 9.49L28.34 9.49L28.34 9.49Q27.99 9.97 27.71 9.97L27.71 9.97L27.71 9.97Q27.42 9.97 27.25 9.66L27.25 9.66L27.25 9.66Q27.08 9.35 26.96 9.16L26.96 9.16L26.96 9.16Q26.84 8.96 26.64 8.70L26.64 8.70L26.64 8.70Q26.43 8.43 26.25 8.29L26.25 8.29L26.25 8.29Q26.07 8.16 25.81 8.05L25.81 8.05L25.81 8.05Q25.55 7.95 25.18 7.95L25.18 7.95L25.18 7.95Q24.81 7.95 24.44 8.17L24.44 8.17L24.44 8.17Q24.06 8.39 23.82 8.75L23.82 8.75L23.82 8.75Q23.58 9.10 23.42 9.55ZM32.76 3.89L32.76 3.89L35.90 3.87L35.90 3.87Q36.05 3.87 36.15 3.97L36.15 3.97L36.15 3.97Q36.25 4.07 36.25 4.29L36.25 4.29L36.25 4.29Q36.25 4.52 35.97 5.62L35.97 5.62L35.97 5.62Q35.69 6.71 35.34 7.77L35.34 7.77L35.34 7.77Q36.24 7.38 37.32 7.07L37.32 7.07L37.32 7.07Q38.41 6.76 39.28 6.76L39.28 6.76L39.28 6.76Q39.94 6.76 40.48 7.12L40.48 7.12L40.48 7.12Q41.08 7.53 41.08 8.35L41.08 8.35L41.08 8.35Q41.08 9.16 40.44 10.54L40.44 10.54L40.44 10.54Q39.81 11.92 39.81 12.30L39.81 12.30L39.81 12.30Q39.81 12.87 40.35 12.87L40.35 12.87L40.35 12.87Q41.41 12.87 42.76 12.17L42.76 12.17L42.76 12.17Q42.96 12.07 43.09 12.07L43.09 12.07L43.09 12.07Q43.37 12.07 43.37 12.31L43.37 12.31L43.37 12.31Q43.37 12.56 43.06 12.76L43.06 12.76L43.06 12.76Q42.75 12.95 42.28 13.18L42.28 13.18L42.28 13.18Q41.81 13.40 41.10 13.67L41.10 13.67L41.10 13.67Q39.44 14.29 37.55 14.29L37.55 14.29L37.55 14.29Q35.66 14.29 35.66 13.36L35.66 13.36L35.66 13.36Q35.66 12.76 36.35 11.21L36.35 11.21L36.35 11.21Q37.04 9.66 37.04 9.12L37.04 9.12L37.04 9.12Q37.04 8.47 36.09 8.47L36.09 8.47L36.09 8.47Q35.56 8.47 35.05 8.63L35.05 8.63L35.05 8.63Q33.92 11.94 33.43 13.82L33.43 13.82L33.43 13.82Q33.39 13.95 33.27 14.01L33.27 14.01L33.27 14.01Q33.15 14.08 33.07 14.08L33.07 14.08L29.54 14.15L29.54 14.15Q29.47 14.15 29.38 14.06L29.38 14.06L29.38 14.06Q29.29 13.97 29.29 13.83L29.29 13.83L29.29 13.83Q29.29 13.69 29.73 12.46L29.73 12.46L29.73 12.46Q30.17 11.22 30.70 9.77L30.70 9.77L30.70 9.77Q31.23 8.32 31.67 6.75L31.67 6.75L31.67 6.75Q32.11 5.19 32.11 4.42L32.11 4.42L32.10 4.23L32.10 4.23Q32.10 3.89 32.76 3.89ZM55.97 12.07L55.97 12.07L55.97 12.07Q56.23 12.07 56.23 12.30L56.23 12.30L56.23 12.30Q56.23 12.54 55.98 12.71L55.98 12.71L55.98 12.71Q55.73 12.89 55.24 13.12L55.24 13.12L55.24 13.12Q54.76 13.35 54.03 13.62L54.03 13.62L54.03 13.62Q53.31 13.90 52.37 14.09L52.37 14.09L52.37 14.09Q51.42 14.29 50.56 14.29L50.56 14.29L50.56 14.29Q48.53 14.29 48.53 13.36L48.53 13.36L48.53 13.36Q48.53 12.76 49.22 11.21L49.22 11.21L49.22 11.21Q49.90 9.66 49.90 9.12L49.90 9.12L49.90 9.12Q49.90 8.51 48.95 8.51L48.95 8.51L48.95 8.51Q48.52 8.51 47.97 8.62L47.97 8.62L47.97 8.62Q47.71 9.54 47.05 11.53L47.05 11.53L47.05 11.53Q46.38 13.53 46.30 13.80L46.30 13.80L46.30 13.80Q46.21 14.08 45.93 14.08L45.93 14.08L42.41 14.15L42.41 14.15Q42.33 14.15 42.24 14.06L42.24 14.06L42.24 14.06Q42.15 13.97 42.15 13.84L42.15 13.84L42.15 13.84Q42.15 13.71 42.44 12.94L42.44 12.94L42.44 12.94Q42.73 12.17 43.08 11.29L43.08 11.29L43.08 11.29Q43.44 10.40 43.73 9.34L43.73 9.34L43.73 9.34Q44.02 8.28 44.02 7.58L44.02 7.58L44.01 7.32L44.01 7.32Q44.01 6.98 44.67 6.98L44.67 6.98L47.91 6.90L47.91 6.90Q48.09 6.90 48.18 7.01L48.18 7.01L48.18 7.01Q48.27 7.12 48.27 7.27L48.27 7.27L48.27 7.27Q48.27 7.42 48.19 7.77L48.19 7.77L48.19 7.77Q50.60 6.76 52.14 6.76L52.14 6.76L52.14 6.76Q52.80 6.76 53.34 7.12L53.34 7.12L53.34 7.12Q53.94 7.53 53.94 8.35L53.94 8.35L53.94 8.35Q53.94 9.19 53.31 10.55L53.31 10.55L53.31 10.55Q52.67 11.91 52.67 12.23L52.67 12.23L52.67 12.23Q52.67 12.87 53.18 12.87L53.18 12.87L53.18 12.87Q53.50 12.87 54.27 12.62L54.27 12.62L54.27 12.62Q55.05 12.38 55.42 12.22L55.42 12.22L55.42 12.22Q55.79 12.07 55.97 12.07ZM66.49 12.07L66.49 12.07L66.49 12.07Q66.73 12.07 66.73 12.29L66.73 12.29L66.73 12.29Q66.73 12.51 66.41 12.70L66.41 12.70L66.41 12.70Q66.08 12.89 65.60 13.10L65.60 13.10L65.60 13.10Q65.13 13.32 64.29 13.61L64.29 13.61L64.29 13.61Q62.35 14.29 59.92 14.29L59.92 14.29L59.92 14.29Q55.30 14.29 55.30 11.44L55.30 11.44L55.30 11.44Q55.30 10.06 56.17 8.98L56.17 8.98L56.17 8.98Q57.05 7.90 58.53 7.33L58.53 7.33L58.53 7.33Q60.01 6.76 61.75 6.76L61.75 6.76L61.75 6.76Q63.49 6.76 64.30 7.30L64.30 7.30L64.30 7.30Q65.11 7.84 65.11 8.78L65.11 8.78L65.11 8.78Q65.11 9.75 64.34 10.37L64.34 10.37L64.34 10.37Q63.56 10.99 62.28 11.29L62.28 11.29L62.28 11.29Q60.98 11.59 59.32 11.71L59.32 11.71L59.32 11.71Q59.42 12.77 60.83 13.03L60.83 13.03L60.83 13.03Q61.20 13.09 61.60 13.09L61.60 13.09L61.60 13.09Q63.20 13.09 66.21 12.13L66.21 12.13L66.21 12.13Q66.40 12.07 66.49 12.07ZM59.32 10.96L59.32 10.96L59.32 10.96Q60.51 10.63 61.20 9.95L61.20 9.95L61.20 9.95Q61.89 9.28 61.89 8.32L61.89 8.32L61.89 8.32Q61.89 8.07 61.73 7.92L61.73 7.92L61.73 7.92Q61.56 7.77 61.23 7.77L61.23 7.77L61.23 7.77Q60.90 7.77 60.54 8.05L60.54 8.05L60.54 8.05Q60.18 8.34 59.94 8.80L59.94 8.80L59.94 8.80Q59.42 9.77 59.32 10.96ZM72.20 7.05L72.20 7.05L74.00 6.82L74.00 6.82Q74.50 6.82 74.50 7.22L74.50 7.22L74.50 7.22Q74.50 7.62 74.03 7.71L74.03 7.71L74.03 7.71Q73.55 7.81 71.87 7.98L71.87 7.98L71.87 7.98Q71.63 8.59 71.17 9.67L71.17 9.67L71.17 9.67Q70.22 11.88 70.22 12.33L70.22 12.33L70.22 12.33Q70.22 12.81 70.82 12.81L70.82 12.81L70.82 12.81Q72.76 12.81 74.31 12.16L74.31 12.16L74.31 12.16Q74.53 12.07 74.66 12.07L74.66 12.07L74.66 12.07Q74.92 12.07 74.92 12.29L74.92 12.29L74.92 12.29Q74.92 12.52 74.59 12.74L74.59 12.74L74.59 12.74Q73.58 13.40 71.56 13.84L71.56 13.84L71.56 13.84Q69.54 14.29 67.83 14.29L67.83 14.29L67.83 14.29Q66.86 14.29 66.34 13.98L66.34 13.98L66.34 13.98Q65.83 13.68 65.83 13.15L65.83 13.15L65.83 13.15Q65.83 12.61 66.54 11.13L66.54 11.13L66.54 11.13Q67.34 9.47 67.69 8.22L67.69 8.22L67.69 8.22Q67.27 8.24 67.10 8.24L67.10 8.24L67.10 8.24Q66.70 8.24 66.70 7.92L66.70 7.92L66.70 7.92Q66.70 7.68 66.83 7.59L66.83 7.59L66.83 7.59Q66.96 7.51 67.10 7.48L67.10 7.48L67.10 7.48Q67.24 7.44 67.34 7.43L67.34 7.43L67.34 7.43Q67.44 7.42 67.61 7.41L67.61 7.41L67.61 7.41Q67.79 7.40 67.87 7.39L67.87 7.39L67.87 7.39Q67.96 6.87 67.96 6.41L67.96 6.41L67.96 6.15L67.96 6.15Q67.96 5.84 68.74 5.74L68.74 5.74L68.74 5.74Q69.00 5.70 70.37 5.39L70.37 5.39L70.37 5.39Q71.74 5.09 72.05 5.09L72.05 5.09L72.05 5.09Q72.54 5.09 72.54 5.43L72.54 5.43L72.54 5.43Q72.54 6.02 72.20 7.05ZM80.64 4.38L80.64 4.38L80.64 4.38Q80.64 5.11 79.83 5.65L79.83 5.65L79.83 5.65Q79.02 6.19 78.12 6.19L78.12 6.19L78.12 6.19Q77.23 6.19 76.73 5.83L76.73 5.83L76.73 5.83Q76.23 5.46 76.23 4.94L76.23 4.94L76.23 4.94Q76.23 4.41 76.61 3.98L76.61 3.98L76.61 3.98Q76.99 3.55 77.60 3.30L77.60 3.30L77.60 3.30Q78.22 3.06 78.93 3.06L78.93 3.06L78.93 3.06Q79.65 3.06 80.15 3.44L80.15 3.44L80.15 3.44Q80.64 3.81 80.64 4.38ZM78.72 12.86L78.72 12.86L78.72 12.86Q79.19 12.86 79.98 12.64L79.98 12.64L79.98 12.64Q80.78 12.41 81.14 12.24L81.14 12.24L81.14 12.24Q81.50 12.07 81.65 12.07L81.65 12.07L81.65 12.07Q81.94 12.07 81.94 12.35L81.94 12.35L81.94 12.35Q81.94 12.48 81.72 12.65L81.72 12.65L81.72 12.65Q81.03 13.17 79.21 13.73L79.21 13.73L79.21 13.73Q77.40 14.29 75.98 14.29L75.98 14.29L75.98 14.29Q75.10 14.29 74.50 14.01L74.50 14.01L74.50 14.01Q73.91 13.73 73.91 13.15L73.91 13.15L73.91 13.15Q73.91 12.80 74.50 11.44L74.50 11.44L74.50 11.44Q75.63 8.87 75.63 7.56L75.63 7.56L75.62 7.30L75.62 7.30Q75.62 6.96 76.28 6.96L76.28 6.96L79.66 6.88L79.66 6.88Q79.84 6.88 79.93 6.99L79.93 6.99L79.93 6.99Q80.01 7.10 80.01 7.23L80.01 7.23L80.01 7.23Q80.01 7.70 79.58 8.78L79.58 8.78L79.58 8.78Q79.15 9.86 78.72 10.91L78.72 10.91L78.72 10.91Q78.29 11.96 78.29 12.41L78.29 12.41L78.29 12.41Q78.29 12.86 78.72 12.86ZM85.34 9.55L85.34 9.55L85.34 9.55Q85.03 10.39 85.03 11.09L85.03 11.09L85.03 11.09Q85.03 11.80 85.17 12.14L85.17 12.14L85.17 12.14Q85.31 12.49 85.60 12.67L85.60 12.67L85.60 12.67Q86.58 13.29 89.47 12.74L89.47 12.74L89.47 12.74Q90.84 12.48 91.47 12.27L91.47 12.27L91.47 12.27Q92.09 12.07 92.20 12.07L92.20 12.07L92.20 12.07Q92.44 12.07 92.44 12.30L92.44 12.30L92.44 12.30Q92.44 12.53 92.08 12.77L92.08 12.77L92.08 12.77Q91.12 13.39 89.38 13.84L89.38 13.84L89.38 13.84Q87.64 14.29 85.49 14.29L85.49 14.29L85.49 14.29Q83.34 14.29 82.22 13.52L82.22 13.52L82.22 13.52Q81.11 12.76 81.11 11.40L81.11 11.40L81.11 11.40Q81.11 10.56 81.46 9.82L81.46 9.82L81.46 9.82Q81.81 9.07 82.42 8.52L82.42 8.52L82.42 8.52Q83.04 7.97 83.85 7.57L83.85 7.57L83.85 7.57Q85.48 6.76 87.54 6.76L87.54 6.76L87.54 6.76Q89.95 6.76 90.92 7.31L90.92 7.31L90.92 7.31Q91.03 7.40 91.03 7.65L91.03 7.65L91.03 7.65Q91.03 7.89 90.82 8.45L90.82 8.45L90.82 8.45Q90.60 9.01 90.26 9.49L90.26 9.49L90.26 9.49Q89.91 9.97 89.63 9.97L89.63 9.97L89.63 9.97Q89.34 9.97 89.17 9.66L89.17 9.66L89.17 9.66Q89.00 9.35 88.88 9.16L88.88 9.16L88.88 9.16Q88.76 8.96 88.56 8.70L88.56 8.70L88.56 8.70Q88.35 8.43 88.17 8.29L88.17 8.29L88.17 8.29Q87.99 8.16 87.73 8.05L87.73 8.05L87.73 8.05Q87.47 7.95 87.10 7.95L87.10 7.95L87.10 7.95Q86.73 7.95 86.35 8.17L86.35 8.17L86.35 8.17Q85.98 8.39 85.74 8.75L85.74 8.75L85.74 8.75Q85.50 9.10 85.34 9.55Z"></path></g><!----><g data-v-423bf9ae="" id="dd7aa76f-3cf7-4058-9aae-5d6cf539503b" transform="matrix(4.803586662404586,0,0,4.803586662404586,0.14261340152661717,-31.22538662899096)" stroke="none" fill="white"><path d="M16 19.586l7.496-12.954H8.504zM7.496 12.414L0 25.368h14.992zM24.504 12.414l-7.496 12.954H32z"></path></g><!----></svg>